M48
;DRILL file {kicad (2015-01-16 BZR 5376)-product} date 6/1/2015 1:21:32 PM
;FORMAT={-:-/ absolute / metric / decimal}
FMAT,2
METRIC,TZ
T1C0.762
T2C0.800
T3C0.813
T4C0.850
T5C0.889
T6C1.001
T7C1.016
T8C1.143
T9C1.199
T10C1.200
T11C1.298
T12C1.500
T13C1.524
T14C2.500
T15C2.984
T16C3.000
T17C3.048
%
G90
G05
M71
T1
X44.214Y-96.776
X45.23Y-91.442
X49.548Y-106.682
X80.028Y-65.534
X80.028Y-67.312
X84.346Y-87.886
X96.284Y-104.65
X97.3Y-105.666
X132.86Y-38.864
X137.432Y-55.501
X183.406Y-34.546
T2
X134.13Y-27.942
X134.13Y-43.182
X136.67Y-27.942
X136.67Y-43.182
X139.21Y-27.942
X139.21Y-43.182
X141.75Y-27.942
X141.75Y-43.182
X144.29Y-27.942
X144.29Y-43.182
X146.83Y-27.942
X146.83Y-43.182
X149.37Y-27.942
X149.37Y-43.182
X151.91Y-27.942
X151.91Y-43.182
X154.45Y-27.942
X154.45Y-43.182
X156.99Y-27.942
X156.99Y-43.182
X159.53Y-27.942
X159.53Y-43.182
X162.07Y-27.942
X162.07Y-43.182
X164.61Y-27.942
X164.61Y-43.182
X167.15Y-27.942
X167.15Y-43.182
X169.69Y-27.942
X169.69Y-43.182
X172.23Y-27.942
X172.23Y-43.182
X174.77Y-27.942
X174.77Y-43.182
X177.31Y-27.942
X177.31Y-43.182
X179.85Y-27.942
X179.85Y-43.182
X182.39Y-27.942
X182.39Y-43.182
T3
X71.9Y-117.35
X71.9Y-122.43
X71.9Y-126.748
X71.9Y-131.828
X101.745Y-117.985
X101.745Y-126.875
X101.745Y-135.765
X101.745Y-144.655
X106.825Y-117.985
X106.825Y-126.875
X106.825Y-135.765
X106.825Y-144.655
X108.095Y-111.508
X110.635Y-111.508
X111.27Y-117.985
X111.27Y-126.875
X111.27Y-135.765
X111.27Y-144.655
X113.175Y-111.508
X115.715Y-111.508
X116.35Y-117.985
X116.35Y-126.875
X116.35Y-135.765
X116.35Y-144.655
X118.255Y-111.508
X120.795Y-111.508
X120.795Y-117.985
X120.795Y-126.875
X120.795Y-135.765
X120.795Y-144.655
X123.335Y-111.508
X125.875Y-111.508
X125.875Y-117.985
X125.875Y-126.875
X125.875Y-135.765
X125.875Y-144.655
X128.415Y-111.508
X130.32Y-117.985
X130.32Y-126.875
X130.32Y-135.765
X130.32Y-144.655
X135.4Y-117.985
X135.4Y-126.875
X135.4Y-135.765
X135.4Y-144.655
X165.19Y-113.19
X165.19Y-115.73
X165.19Y-118.27
X165.19Y-120.81
X165.19Y-126.19
X165.19Y-128.73
X165.19Y-131.27
X165.19Y-133.81
X172.81Y-113.19
X172.81Y-115.73
X172.81Y-118.27
X172.81Y-120.81
X172.81Y-126.19
X172.81Y-128.73
X172.81Y-131.27
X172.81Y-133.81
X181.12Y-69.598
X181.12Y-77.218
X183.66Y-69.598
X183.66Y-77.218
X186.2Y-69.598
X186.2Y-77.218
X188.74Y-69.598
X188.74Y-77.218
X191.28Y-69.598
X191.28Y-77.218
X193.82Y-69.598
X193.82Y-77.218
X196.36Y-69.598
X196.36Y-77.218
X198.9Y-69.598
X198.9Y-77.218
X208.298Y-86.362
X208.298Y-88.902
X208.298Y-91.442
X208.298Y-93.982
X208.298Y-96.522
X208.298Y-99.062
X208.298Y-101.602
X208.298Y-104.142
X208.298Y-106.682
X212.362Y-88.902
X212.362Y-91.442
X212.362Y-93.982
X212.362Y-96.522
X212.362Y-99.062
X212.362Y-101.602
X212.362Y-104.142
X212.362Y-106.682
X219.982Y-88.902
X219.982Y-91.442
X219.982Y-93.982
X219.982Y-96.522
X219.982Y-99.062
X219.982Y-101.602
X219.982Y-104.142
X219.982Y-106.682
T4
X150.64Y-85.6
X150.64Y-88.14
X150.64Y-90.68
X150.64Y-93.22
X150.64Y-95.76
X150.64Y-98.3
X150.64Y-100.84
X150.64Y-103.38
X150.64Y-105.92
X150.64Y-108.46
X150.64Y-111.
X150.64Y-113.54
X150.64Y-116.08
X150.64Y-118.62
X150.64Y-121.16
X150.64Y-123.7
X150.64Y-126.24
X150.64Y-128.78
X150.64Y-131.32
X150.64Y-133.86
X158.73Y-116.
X161.27Y-116.
X186.2Y-85.6
X186.2Y-88.14
X186.2Y-90.68
X186.2Y-93.22
X186.2Y-95.76
X186.2Y-98.3
X186.2Y-100.84
X186.2Y-103.38
X186.2Y-105.92
X186.2Y-108.46
X186.2Y-111.
X186.2Y-113.54
X186.2Y-116.08
X186.2Y-118.62
X186.2Y-121.16
X186.2Y-123.7
X186.2Y-126.24
X186.2Y-128.78
X186.2Y-131.32
X186.2Y-133.86
T5
X45.484Y-68.328
X47.008Y-32.768
X49.548Y-56.136
X52.596Y-65.026
X52.85Y-73.154
X54.882Y-59.692
X58.184Y-71.376
X59.708Y-63.756
X59.962Y-49.024
X59.962Y-58.168
X59.962Y-75.44
X60.216Y-45.468
X60.216Y-47.246
X60.47Y-30.228
X60.47Y-41.404
X60.47Y-43.69
X60.47Y-133.606
X60.47Y-135.892
X60.724Y-39.626
X60.724Y-77.98
X60.724Y-96.268
X64.534Y-58.168
X66.82Y-109.222
X68.598Y-63.248
X68.598Y-81.536
X68.598Y-107.444
X69.106Y-105.92
X69.36Y-86.87
X69.868Y-108.714
X74.44Y-106.682
X80.264Y-139.827
X80.282Y-57.406
X80.536Y-55.12
X80.536Y-59.438
X80.536Y-61.47
X80.536Y-63.248
X83.838Y-38.102
X83.838Y-43.436
X83.838Y-46.738
X84.092Y-40.896
X84.346Y-34.8
X88.664Y-54.358
X89.934Y-31.498
X89.934Y-57.66
X91.186Y-129.413
X91.204Y-60.454
X94.506Y-103.888
X98.298Y-31.877
X104.267Y-69.469
X111.506Y-81.153
X143.02Y-45.976
X150.64Y-55.628
X153.924Y-142.621
X155.974Y-45.976
X163.34Y-55.628
X168.42Y-45.976
X172.992Y-57.66
X178.689Y-139.319
X180.34Y-98.171
X184.93Y-63.502
X191.643Y-138.938
X196.596Y-140.335
X199.517Y-139.7
X204.343Y-113.157
T6
X165.2Y-104.
X172.8Y-104.
T7
X47.135Y-118.62
X47.135Y-121.795
X47.135Y-126.875
X47.135Y-130.05
X47.135Y-135.13
X47.135Y-138.305
X49.675Y-118.62
X49.675Y-121.795
X49.675Y-126.875
X49.675Y-130.05
X49.675Y-135.13
X49.675Y-138.305
X52.215Y-118.62
X52.215Y-121.795
X52.215Y-126.875
X52.215Y-130.05
X52.215Y-135.13
X52.215Y-138.305
X53.206Y-145.
X54.755Y-118.62
X54.755Y-121.795
X54.755Y-126.875
X54.755Y-130.05
X54.755Y-135.13
X54.755Y-138.305
X56.Y-145.
X58.799Y-145.
X59.74Y-92.5
X62.28Y-92.5
X64.82Y-92.5
X67.36Y-92.5
X69.9Y-92.5
X72.44Y-92.5
X73.17Y-99.57
X74.98Y-92.5
X75.71Y-99.57
X76.Y-33.
X76.Y-35.54
X76.Y-38.08
X76.Y-40.62
X76.Y-43.16
X76.Y-45.7
X76.Y-48.24
X77.52Y-92.5
X78.25Y-99.57
X78.504Y-122.938
X78.504Y-125.478
X79.012Y-135.384
X80.06Y-92.5
X80.79Y-99.57
X81.552Y-135.384
X82.6Y-92.5
X83.33Y-99.57
X84.092Y-135.384
X85.14Y-92.5
X85.87Y-99.57
X87.68Y-92.5
X88.41Y-99.57
X90.22Y-92.5
X90.696Y-135.384
X90.95Y-99.57
X92.76Y-92.5
X93.236Y-135.384
X93.236Y-145.29
X95.3Y-92.5
X95.776Y-135.384
X95.776Y-145.29
X96.03Y-99.57
X97.84Y-92.5
X98.57Y-99.57
X99.06Y-63.246
X100.38Y-92.5
X101.11Y-99.57
X101.6Y-63.246
X102.92Y-92.5
X103.65Y-99.57
X104.14Y-63.246
X105.46Y-92.5
X106.19Y-99.57
X106.68Y-63.246
X108.Y-92.5
X109.22Y-63.246
X110.635Y-107.952
X111.27Y-99.57
X111.76Y-63.246
X113.175Y-107.952
X113.81Y-99.57
X115.715Y-107.952
X116.35Y-99.57
X118.255Y-107.952
X118.89Y-99.57
X120.795Y-107.952
X121.43Y-99.57
X123.335Y-107.952
X125.875Y-107.952
X127.Y-99.695
X127.526Y-26.164
X127.526Y-28.704
X127.526Y-31.244
X127.526Y-33.784
X127.526Y-36.324
X127.526Y-38.864
X127.526Y-41.404
X127.526Y-43.944
X127.526Y-51.31
X127.526Y-53.85
X127.526Y-56.39
X127.526Y-58.93
X128.415Y-107.952
X129.54Y-99.695
X132.08Y-99.695
X133.114Y-108.206
X134.62Y-99.695
X135.654Y-108.206
X143.02Y-85.6
X143.02Y-88.14
X143.02Y-90.68
X143.02Y-93.22
X143.02Y-95.76
X143.02Y-98.3
X143.02Y-100.84
X143.02Y-103.38
X143.02Y-105.92
X143.02Y-108.46
X143.02Y-111.
X143.02Y-113.54
X143.02Y-116.08
X143.02Y-118.62
X143.02Y-121.16
X143.02Y-123.7
X143.02Y-126.24
X143.02Y-128.78
X143.02Y-131.32
X143.02Y-133.86
X188.722Y-45.974
X188.722Y-48.514
X193.294Y-146.685
X193.82Y-85.6
X193.82Y-88.14
X193.82Y-90.68
X193.82Y-93.22
X193.82Y-95.76
X193.82Y-98.3
X193.82Y-100.84
X193.82Y-103.38
X193.82Y-105.92
X193.82Y-108.46
X193.82Y-111.
X193.82Y-113.54
X193.82Y-116.08
X193.82Y-118.62
X193.82Y-121.16
X193.82Y-123.7
X193.82Y-126.24
X193.82Y-128.78
X193.82Y-131.32
X193.82Y-133.86
X195.834Y-146.685
X198.374Y-146.685
X201.422Y-146.685
X203.98Y-88.902
X203.98Y-91.442
X203.98Y-93.982
X203.98Y-96.522
X203.98Y-99.062
X203.98Y-101.602
X203.98Y-104.142
X203.98Y-106.682
X205.25Y-117.604
X205.25Y-120.144
X205.25Y-122.684
X205.25Y-125.224
X205.25Y-127.764
X205.25Y-130.304
X205.25Y-132.844
X205.25Y-135.384
X206.756Y-146.939
X208.Y-70.
X208.Y-72.54
X208.Y-75.08
X208.Y-77.62
X209.296Y-146.939
X211.836Y-146.939
X214.376Y-146.939
T8
X59.Y-102.46
X59.Y-105.
X59.Y-107.54
T9
X72.408Y-145.29
X74.907Y-140.251
X77.407Y-145.29
X77.996Y-113.794
X80.495Y-108.755
X82.314Y-145.29
X82.995Y-113.794
X84.813Y-140.251
X87.313Y-145.29
X90.188Y-113.794
X92.687Y-108.755
X95.187Y-113.794
T10
X51.58Y-26.926
X54.12Y-26.926
X56.66Y-26.926
X59.2Y-26.926
X61.74Y-26.926
X64.28Y-26.926
X66.82Y-26.926
X69.36Y-26.926
X71.9Y-26.926
X74.44Y-26.926
X76.98Y-26.926
X79.52Y-26.926
X82.06Y-26.926
X84.6Y-26.926
X87.14Y-26.926
X89.68Y-26.926
T11
X169.Y-75.
X169.Y-95.
T12
X47.Y-57.
X47.Y-65.
T13
X194.999Y-39.
X194.999Y-55.
X197.001Y-33.001
X197.001Y-44.999
X197.001Y-49.001
X197.001Y-60.999
X208.999Y-33.001
X208.999Y-44.999
X208.999Y-49.001
X208.999Y-60.999
X217.Y-33.92
X217.Y-39.
X217.Y-44.08
X217.Y-49.92
X217.Y-55.
X217.Y-60.08
X217.Y-65.46
X217.Y-70.54
X217.Y-76.46
X217.Y-81.54
T14
X46.081Y-26.926
X46.081Y-57.927
X121.079Y-26.926
X121.079Y-57.927
T15
X53.Y-109.5
T16
X53.Y-100.5
T17
X46.Y-27.
X46.Y-146.
X132.86Y-87.505
X220.Y-27.
X220.Y-146.
T6
X50.765Y-79.013G85X50.765Y-81.011
G05
X52.765Y-84.711G85X54.764Y-84.711
G05
X56.764Y-79.013G85X56.764Y-81.011
G05
T0
M30
